<?xml version="1.0" encoding="utf-8"?>
<!-- Generator: Adobe Illustrator 26.0.3, SVG Export Plug-In . SVG Version: 6.00 Build 0)  -->
<svg version="1.1" id="Vrstva_1" xmlns="http://www.w3.org/2000/svg" xmlns:xlink="http://www.w3.org/1999/xlink" x="0px" y="0px"
	 viewBox="0 0 1000 1000" style="enable-background:new 0 0 1000 1000;" xml:space="preserve">
<path d="M269,132.9h-66.3v66.3H269V132.9z"/>
<path d="M400.7,131.9h-66.3v66.3h66.3V131.9z"/>
<path d="M334.4,198.2H268v66.3h66.3V198.2z"/>
<path d="M269,198.2h-66.3v66.3H269V198.2z"/>
<path d="M269,263.6h-66.3v66.3H269V263.6z"/>
<path d="M400.7,264.6h-66.3v66.3h66.3V264.6z"/>
<path d="M731.1,735.2h-66.3v66.3h66.3V735.2z"/>
<path d="M797.7,668.6h-66.3V735h66.3V668.6z"/>
<path d="M664.9,801.4h-66.3v66.3h66.3V801.4z"/>
<path d="M797.6,801.4h-66.3v66.3h66.3V801.4z"/>
<path d="M797.6,198.1h-329v66.5h329V198.1z"/>
<path d="M797.6,602V198.1h-66.5V602H797.6z"/>
<path d="M779,554.7L678.4,454.1l-47,47L732,601.7L779,554.7z"/>
<path d="M798.5,601.8l100.6-100.6l-47-47L751.5,554.8L798.5,601.8z"/>
<path d="M202.8,801.9h329v-66.5h-329V801.9z"/>
<path d="M202.8,398v403.9h66.5V398H202.8z"/>
<path d="M221.5,445.3l100.6,100.6l47-47L268.5,398.3L221.5,445.3z"/>
<path d="M202,398.2L101.4,498.8l47,47L249,445.2L202,398.2z"/>
</svg>
